<?xml version="1.0" encoding="UTF-8"?>
<svg width="36" height="36" viewBox="0 0 36 36" fill="none" xmlns="http://www.w3.org/2000/svg">
  <!-- Background -->
  <rect x="2" y="2" width="32" height="32" rx="12" fill="#FB923C"/>
  <rect x="2" y="2" width="32" height="32" rx="12" stroke="#FDBA74" stroke-width="1"/>

  <!-- Shopping bag -->
  <rect x="10.5" y="12" width="15" height="13" rx="3" fill="white"/>
  <rect x="10.5" y="12" width="15" height="13" rx="3" stroke="#FDBA74" stroke-width="1"/>

  <!-- Bag handle -->
  <path d="M13.5 14.5C13.5 12.8431 14.8431 11.5 16.5 11.5H19.5C21.1569 11.5 22.5 12.8431 22.5 14.5"
        stroke="#FDBA74" stroke-width="1.4" stroke-linecap="round"/>

  <!-- Small "S" inside (for Sembako) -->
  <path d="M18.1 19.2C17.4 18.9 16.7 18.9 16.7 18.2C16.7 17.7 17.1 17.4 17.7 17.4C18.2 17.4 18.6 17.6 18.9 17.9L19.5 17.1C19.1 16.7 18.5 16.5 17.8 16.5C16.7 16.5 15.8 17.2 15.8 18.2C15.8 19.1 16.4 19.6 17.2 19.9C17.9 20.2 18.3 20.3 18.3 20.8C18.3 21.3 17.9 21.6 17.3 21.6C16.7 21.6 16.2 21.3 15.9 20.9L15.2 21.7C15.7 22.3 16.4 22.6 17.3 22.6C18.4 22.6 19.3 21.9 19.3 20.8C19.3 19.8 18.7 19.4 18.1 19.2Z"
        fill="#FDBA74"/>
</svg>
